WWE Wrestlemania 28 1st April 2012 HDTV BZINGAZ in mp4 format.. enjoy and seed..

Screenshots:
 
http://image.bayimg.com/janbgaadm.jpg
 
http://image.bayimg.com/janboaadm.jpg



Format                           : MPEG-4
Format profile                   : Base Media
Codec ID                         : isom
File size                        : 783 MiB
Duration                         : 3h 58mn

Video
ID                               : 1
Format                           : AVC
Format/Info                      : Advanced Video Codec
Format profile                   : Baseline@L3.0
Format settings, CABAC           : No
Format settings, ReFrames        : 1 frame
Codec ID                         : avc1
Codec ID/Info                    : Advanced Video Coding
Duration                         : 3h 58mn
Bit rate mode                    : Variable
Bit rate                         : 360 Kbps
Width                            : 512 pixels
Height                           : 288 pixels
Display aspect ratio             : 16:9
Frame rate mode                  : Constant
Frame rate                       : 29.970 fps
Color space                      : YUV
Chroma subsampling               : 4:2:0
Bit depth                        : 8 bits
Scan type                        : Progressive
Bits/(Pixel*Frame)               : 0.081
Stream size                      : 611 MiB (78%)


Audio
ID                               : 2
Format                           : AAC
Format/Info                      : Advanced Audio Codec
Format profile                   : LC
Codec ID                         : 40
Duration                         : 3h 58mn
Bit rate mode                    : Variable
Bit rate                         : 96.0 Kbps
Channel(s)                       : 2 channels
Channel positions                : Front: L R
Sampling rate                    : 44.1 KHz
Compression mode                 : Lossy
Stream size                      : 163 MiB (21%)



Matches:


ONCE IN A LIFETIME
John Cena vs. The Rock

THE END OF AN ERA HELL IN A CELL MATCH (Shawn Michaels as Special Guest Referee)
Triple H vs. The Undertaker

WWE CHAMPIONSHIP MATCH
CM Punk (c) vs. Chris Jericho

WORLD HEAVYWEIGHT CHAMPIONSHIP MATCH
Daniel Bryan (c) vs. Sheamus

WWE INTERCONTINENTAL CHAMPIONSHIP MATCH
Cody Rhodes (c) vs. Big Show

Randy Orton vs. Kane

12-MAN TAG TEAM MATCH (To determine General Manager of both RAW and SmackDown)
Team Teddy (Santino Marella, R-Truth, Kofi Kingsotn, Zack Ryder,
The Great Khali and Booker T)
vs.
Team Johnny (David Otunga, Mark Henry, Dolph Ziggler, Jack Swagger,
The Miz and Drew McIntyre)

Kelly Kelly and Maria Menounos vs. Beth Phoenix and Eve Torres


ENJOY!	